<mxfile host="app.diagrams.net" agent="Mozilla/5.0 (Windows NT 10.0; Win64; x64) AppleWebKit/537.36 (KHTML, like Gecko) Chrome/131.0.0.0 Safari/537.36" version="24.8.6">
  <diagram name="หน้า-1" id="pTLDNA6I6BxiAXG71R2i">
    <mxGraphModel dx="1050" dy="530" grid="1" gridSize="10" guides="1" tooltips="1" connect="1" arrows="1" fold="1" page="1" pageScale="1" pageWidth="827" pageHeight="1169" math="0" shadow="0">
      <root>
        <mxCell id="0" />
        <mxCell id="1" parent="0" />
        <mxCell id="mD5F3c0j0_rGab6qWC1k-3" value="" style="edgeStyle=orthogonalEdgeStyle;rounded=0;orthogonalLoop=1;jettySize=auto;html=1;" edge="1" parent="1" source="mD5F3c0j0_rGab6qWC1k-1" target="mD5F3c0j0_rGab6qWC1k-2">
          <mxGeometry relative="1" as="geometry" />
        </mxCell>
        <mxCell id="mD5F3c0j0_rGab6qWC1k-1" value="start" style="ellipse;whiteSpace=wrap;html=1;" vertex="1" parent="1">
          <mxGeometry x="354" y="10" width="120" height="80" as="geometry" />
        </mxCell>
        <mxCell id="mD5F3c0j0_rGab6qWC1k-5" value="" style="edgeStyle=orthogonalEdgeStyle;rounded=0;orthogonalLoop=1;jettySize=auto;html=1;" edge="1" parent="1" source="mD5F3c0j0_rGab6qWC1k-2" target="mD5F3c0j0_rGab6qWC1k-4">
          <mxGeometry relative="1" as="geometry" />
        </mxCell>
        <mxCell id="mD5F3c0j0_rGab6qWC1k-2" value="Input Days" style="shape=parallelogram;perimeter=parallelogramPerimeter;whiteSpace=wrap;html=1;fixedSize=1;" vertex="1" parent="1">
          <mxGeometry x="354" y="180" width="120" height="60" as="geometry" />
        </mxCell>
        <mxCell id="mD5F3c0j0_rGab6qWC1k-7" value="" style="edgeStyle=orthogonalEdgeStyle;rounded=0;orthogonalLoop=1;jettySize=auto;html=1;" edge="1" parent="1" source="mD5F3c0j0_rGab6qWC1k-4" target="mD5F3c0j0_rGab6qWC1k-6">
          <mxGeometry relative="1" as="geometry" />
        </mxCell>
        <mxCell id="mD5F3c0j0_rGab6qWC1k-4" value="Days x 86400" style="whiteSpace=wrap;html=1;" vertex="1" parent="1">
          <mxGeometry x="354" y="320" width="120" height="60" as="geometry" />
        </mxCell>
        <mxCell id="mD5F3c0j0_rGab6qWC1k-6" value="Output Seconds" style="shape=parallelogram;perimeter=parallelogramPerimeter;whiteSpace=wrap;html=1;fixedSize=1;" vertex="1" parent="1">
          <mxGeometry x="354" y="460" width="120" height="60" as="geometry" />
        </mxCell>
      </root>
    </mxGraphModel>
  </diagram>
</mxfile>
